<svg version="1.1" id="Capa_1" xmlns="http://www.w3.org/2000/svg" x="0" y="0" viewBox="0 0 512 512" xml:space="preserve"><style>.st0{fill:#26ffdf}</style><path class="st0" d="M256 34.7l66.7 38.5 15-26L256 0l-81.7 47.2 15 26L256 34.7zM64.4 145.4l66.7-38.5-15-26.1L34.3 128v94.4h30.1v-77zm0 144.2H34.3V384l81.7 47.2 15-26-66.7-38.5v-77.1zM256 477.3l-66.7-38.5-15 26.1L256 512l81.7-47.2-15-26.1-66.7 38.6zm191.6-110.7l-66.7 38.5 15 26 81.7-47.2v-94.4h-30.1l.1 77.1zM396 80.8l-15 26.1 66.7 38.5v77h30.1V128L396 80.8z"/><path class="st0" d="M417.5 349.2V180.1L271 264.7v169.1l146.5-84.6zm-308-195.1L256 238.6 402.5 154 256 69.5l-146.5 84.6zm-15 195.1L241 433.8V264.7L94.5 180.1v169.1z"/></svg>