<svg version="1.1" id="Слой_1" xmlns="http://www.w3.org/2000/svg" x="0" y="0" viewBox="0 0 511 511" xml:space="preserve"><path d="M482.9 374.7l19.8-14.2c8.3-5.9 10.8-17.2 5.7-26.1l-10.2-18c-4.8-8.6-15.2-12.3-24.4-8.8l-22.8 8.6c-2-1.5-4.2-2.9-6.3-4.3l-.1-.1c-.9-.5-1.8-1.1-2.8-1.6-.3-.2-.6-.3-.8-.5-.8-.4-1.6-.9-2.5-1.3l-1.2-.6c-.4-.2-.8-.4-1.1-.6l-4.2-23.6c-1.7-9.5-10-16.4-19.6-16.4h-19c-10 0-18.4 7.3-19.8 17.2l-3.2 22.8c-5.9 2.7-11.4 6-16.5 10l-23.2-7.2c-9.4-2.9-19.6 1.4-23.9 10.3l-8.5 17.5c-4.3 8.9-1.5 19.5 6.6 25.2l18.7 12.9c-.1 1.3-.1 2.7-.1 4.1 0 1.2 0 2.4.1 3.7 0 .4.1.8.1 1.3 0 .4 0 .9.1 1.3l-18.9 15.1c-7.7 6.1-9.7 16.9-4.9 25.5l9.1 15.9c4.8 8.5 15.1 12.2 24.2 8.9l21.9-8c4.8 3.6 9.9 6.7 15.4 9.1l4.2 23.6c1.7 9.5 10 16.4 19.6 16.4h18c9.8 0 18.2-7.1 19.7-16.8l3.7-23c.5-.2 1-.4 1.4-.7.3-.2.7-.3 1-.5.8-.4 1.7-.8 2.5-1.3.7-.4 1.5-.8 2.2-1.2.1 0 .1-.1.2-.1 3.9-2.2 7.6-4.8 11.1-7.7l23.3 6.7c9.2 2.7 19.1-1.7 23.4-10.3l8-16.1c4.4-8.8 1.7-19.5-6.3-25.2L483 383.2c0-1 .1-1.9.1-2.9 0-1.2 0-2.4-.1-3.6 0-.3 0-.7-.1-1v-1zM432.2 407c-2.8 3.6-6.5 6.5-10.8 8.8-.1.1-.3.1-.4.2-.8.4-1.5.7-2.3 1.1-.2.1-.4.2-.6.2-.6.2-1.3.5-1.9.7-.3.1-.5.2-.8.3-.8.3-1.6.5-2.5.7-3.1.8-6.4 1.2-9.8 1.2-3.7 0-7.3-.5-10.7-1.5-.6-.2-1.1-.3-1.7-.5-.3-.1-.6-.2-1-.3l-1.5-.6-1.5-.6c-.4-.2-.9-.4-1.3-.6-.4-.2-.7-.4-1.1-.6-.3-.2-.7-.4-1-.6-.5-.3-1.1-.6-1.6-.9-.4-.3-.8-.5-1.2-.8-.3-.2-.7-.5-1-.7-.3-.2-.7-.5-1-.8-.3-.2-.6-.5-.9-.7-.5-.5-1.1-.9-1.6-1.4-.3-.2-.5-.5-.7-.7l-1.1-1.1c-4.9-5-8.4-11.4-10.1-18.4-.1-.5-.3-1.1-.4-1.6 0-.2-.1-.5-.1-.7-.1-.5-.2-1.1-.2-1.6 0-.2-.1-.5-.1-.7-.1-.6-.1-1.1-.2-1.7v-.6c0-.8-.1-1.5-.1-2.3 0-.7 0-1.5.1-2.2v-.3c0-.7.1-1.3.2-2v-.2l.3-2.1v-.1c.1-.7.3-1.4.4-2.1 1.7-7.3 5.3-13.8 10.4-19 .1-.1.2-.3.4-.4l1.2-1.2c.1-.1.2-.2.3-.2.8-.8 1.7-1.5 2.6-2.2l.2-.2c1.4-1.1 3-2.1 4.5-2.9.1-.1.2-.1.4-.2.5-.3 1-.5 1.5-.8.2-.1.4-.2.5-.2.8-.4 1.6-.7 2.4-1 .3-.1.7-.3 1-.4.4-.1.8-.3 1.2-.4.6-.2 1.1-.3 1.7-.5 3.3-.9 6.9-1.4 10.5-1.4 3.7 0 7.3.5 10.7 1.5.5.2 1.1.3 1.6.5.3.1.7.2 1 .3.5.2 1 .4 1.4.5.5.2.9.4 1.4.6.5.2.9.4 1.4.7.3.2.7.4 1 .5.4.2.7.4 1.1.6.3.2.6.4 1 .6.6.4 1.2.7 1.8 1.1l.9.6 1.2.9c.3.2.5.4.8.6.6.5 1.2 1 1.7 1.5.2.2.4.3.5.5.4.4.9.8 1.3 1.3 4.9 5 8.4 11.4 10.1 18.4.1.5.3 1.1.4 1.6 0 .2.1.5.1.7.1.5.2 1.1.2 1.6 0 .2.1.5.1.7.1.5.1 1.1.2 1.7 0 .2 0 .4.1.6 0 .8.1 1.5.1 2.3 0 1.4-.1 2.8-.2 4.1v.2c-.1.6-.1 1.2-.2 1.8 0 .2-.1.5-.1.7-.1.4-.1.8-.2 1.2-1.2 5.6-3.5 10.8-6.8 15.3-1.1 1.2-2.2 2.3-3.2 3.6zm-84.9-175.5c0-14.1-7.3-26.7-19.5-33.8L242.2 148c-12.2-7.1-26.8-7.1-39-.1-12.2 7.1-19.6 19.7-19.6 33.9v99.4c0 14.2 7.3 26.8 19.6 33.9 6.1 3.5 12.8 5.3 19.4 5.3 6.7 0 13.4-1.8 19.5-5.3l85.7-49.7c12.2-7.1 19.5-19.7 19.5-33.9zm-123.7 48.2v-96.4l83 48.2-83 48.2zM511 98.8v148.7c0 11-8.9 20-20 20-11 0-20-8.9-20-20V98.8c0-22-17.9-39.9-39.9-39.9H79.8c-22 0-39.9 17.9-39.9 39.9v261.5c0 22 17.9 39.9 39.9 39.9h157.7c11 0 20 8.9 20 20 0 11-8.9 20-20 20H79.8c-44 0-79.8-35.8-79.8-79.8V98.8C0 54.8 35.8 19 79.8 19h351.3c44.1 0 79.9 35.8 79.9 79.8z" fill="#26ffdf"/></svg>