<svg version="1.1" id="Capa_1" xmlns="http://www.w3.org/2000/svg" x="0" y="0" viewBox="0 0 512 512" xml:space="preserve"><path d="M256 5.3C114.6 5.3 0 120.4 0 262.4c0 113.5 73.3 209.9 175.1 243.9 12.8 2.4 17.5-5.6 17.5-12.4 0-6.1-.2-22.3-.4-43.7-71.2 15.4-86.2-34.5-86.2-34.5-11.6-29.7-28.4-37.6-28.4-37.6-23.3-15.9 1.7-15.6 1.7-15.6 25.7 1.8 39.2 26.5 39.2 26.5 22.8 39.3 59.9 27.9 74.5 21.3 2.3-16.6 8.9-27.9 16.3-34.4-56.8-6.5-116.6-28.5-116.6-127 0-28.1 10-51 26.4-69-2.7-6.5-11.4-32.6 2.5-68 0 0 21.5-6.9 70.4 26.3 20.4-5.7 42.3-8.5 64.1-8.6 21.7.1 43.6 2.9 64.1 8.7C369 105 390.5 112 390.5 112c14 35.4 5.2 61.5 2.6 68 16.4 18 26.3 40.9 26.3 69 0 98.7-59.8 120.4-116.9 126.8 9.2 7.9 17.4 23.6 17.4 47.6 0 34.4-.3 62.1-.3 70.5 0 6.9 4.6 14.9 17.6 12.4C438.7 472.1 512 375.9 512 262.4c0-142-114.6-257.1-256-257.1z" fill="#fff"/></svg>