<svg xmlns="http://www.w3.org/2000/svg">
  <symbol id="about-icon" viewBox="0 0 512 512">
    <g>
      <path d="M252.4,246.6c33.9,0,63.2-12.2,87.2-36.1c24-24,36.1-53.3,36.1-87.2c0-33.9-12.2-63.2-36.1-87.2
      c-24-24-53.3-36.1-87.2-36.1c-33.9,0-63.2,12.2-87.2,36.1S129,89.4,129,123.3c0,33.9,12.2,63.2,36.1,87.2
      C189.1,234.5,218.5,246.6,252.4,246.6z"/>
      <path d="M468.1,393.7c-0.7-10-2.1-20.9-4.1-32.4c-2.1-11.6-4.8-22.5-8-32.5c-3.3-10.3-7.8-20.6-13.4-30.3
      c-5.8-10.2-12.6-19-20.2-26.3c-8-7.6-17.7-13.7-29-18.2c-11.2-4.4-23.7-6.7-37-6.7c-5.2,0-10.3,2.1-20,8.5c-6,3.9-13,8.4-20.9,13.5
      c-6.7,4.3-15.8,8.3-27,11.9c-10.9,3.5-22.1,5.3-33,5.3s-22.1-1.8-33-5.3c-11.2-3.6-20.3-7.6-27-11.9c-7.8-5-14.8-9.5-20.9-13.5
      c-9.8-6.4-14.8-8.5-20-8.5c-13.3,0-25.8,2.3-37,6.7c-11.3,4.5-21,10.6-29,18.2c-7.6,7.3-14.4,16.1-20.2,26.3
      c-5.6,9.8-10.1,20-13.4,30.3c-3.2,10-5.9,20.9-8,32.5c-2.1,11.5-3.5,22.4-4.1,32.4c-0.7,9.8-1,20-1,30.2c0,26.7,8.5,48.4,25.3,64.3
      C83.8,504,105.7,512,132.3,512h246.5c26.6,0,48.5-8,65.1-23.7c16.8-15.9,25.3-37.6,25.3-64.3C469.2,413.6,468.8,403.5,468.1,393.7z"
      />
    </g>
  </symbol>
</svg>

<svg xmlns="http://www.w3.org/2000/svg">
  <symbol id="portfolio-icon" viewBox="0 0 502.672 502.672">
    <g>
      <path d="M138.29,168.019h258.806v-16.178c0-13.352-10.936-24.267-24.267-24.267H266.011v-14.129
        c0-20.104-16.351-36.39-36.39-36.39h-62.124c-9.707,0-18.831,3.796-25.734,10.699c-6.903,6.903-10.678,15.962-10.678,25.691
        v14.15H24.267C10.915,127.574,0,138.488,0,151.841v216.722l81.581-165.275C91.482,183.161,115.9,168.019,138.29,168.019z
        M155.353,113.445c0-3.214,1.316-6.256,3.581-8.542c2.265-2.33,5.328-3.602,8.542-3.602h62.124
        c6.709,0,12.123,5.436,12.123,12.144v14.15h-86.369V113.445z"/>
      <path d="M486.874,192.243H138.29c-13.331,0-29.099,9.793-34.945,21.743L9.599,403.895
        c-5.91,11.929,0.194,21.722,13.525,21.722h348.584c13.331,0,29.121-9.772,34.988-21.722l93.725-189.909
        C506.309,202.036,500.248,192.243,486.874,192.243z"/>
    </g>
  </symbol>
</svg>

<svg xmlns="http://www.w3.org/2000/svg">
  <symbol id="resources-icon" viewBox="0 0 512 512">
    <g>
      <path d="M403.626,85.731H139.537c-8.181,0-14.813-6.632-14.813-14.813v-7.412c0-8.341-6.762-15.103-15.103-15.103H30.206
        C13.524,48.403,0,61.926,0,78.609v254.163l38.757-188.557c1.416-6.888,7.478-11.831,14.51-11.831h380.565v-16.447
        C433.832,99.254,420.308,85.731,403.626,85.731z"/>
      <path d="M481.79,162.01H65.345v0L7.058,445.577c-1.912,9.304,5.194,18.02,14.693,18.02h433.357
        c15.397,0,28.33-11.581,30.023-26.885l26.682-241.174C513.792,177.649,499.787,162.01,481.79,162.01z"/>
    </g>
  </symbol>
</svg>