<svg id="Layer_1" version="1.1" viewBox="0 0 512 512" xml:space="preserve" xmlns="http://www.w3.org/2000/svg"><path d="M178 108.5c23.3 0 46.7.1 70 0 8.9 0 15.9-5 19.8-12.1C281 72.5 293.4 48.2 305.9 24c2.6-5 6.5-8.7 10.2-12.8 1.3-1.4 2.8-1.5 4.5-1.5 27.8 0 55.7.1 83.5-.1 3.1 0 3.9 1 3.9 4-.1 27.7-.1 55.3 0 83 0 2.3-.8 4.2-1.8 6.1-28.9 55.1-57.7 110.2-86.5 165.2-3.1 5.9 1.8 13.9 8.6 13.9 25 0 50 .1 75-.1 3.7 0 4.8.8 4.7 4.6-.2 38-.2 76 0 114 0 4-1.1 5-5 5-47.2-.1-94.3-.1-141.5-.1-8.9 0-16 5.1-19.9 12.1-13.7 24.7-26.4 50-39.7 74.9-3.9 7.3-9.1 12.3-19.1 12.1-25.5-.8-51-.3-76.5-.2-3.9 0-5-.9-5-4.9.2-27 .1-54 0-81 0-3 .8-5.5 2.2-8.1 28.7-54.8 57.4-109.6 86.1-164.3 3-5.8-1.7-13.7-8.4-13.7-24.8 0-49.7-.1-74.5.1-4.5 0-5.4-1.3-5.4-5.5.2-37.7.2-75.3 0-113 0-4.6 1.4-5.4 5.6-5.4 23.7.3 47.4.2 71.1.2z" fill="#06CB47"/></svg>