<svg xmlns="http://www.w3.org/2000/svg"><symbol id="resources-icon" viewBox="0 0 502.672 502.672"><path class="st0" d="M332 121.9H184.8l-29.3-34.8c-1-1.2-2.5-1.8-4-1.8H32.8c-18.2.2-32.8 14.9-32.8 33v214c0 18.2 14.8 32.9 33 33h299c18.2 0 32.9-14.8 33-33V154.9c-.1-18.2-14.8-33-33-33z"/><path class="st0" d="M375.2 79.3H228l-29.3-34.8c-1-1.2-2.5-1.8-4-1.8H76c-16.5 0-30.4 12.2-32.6 28.5h108.3c5.7 0 11.1 2.5 14.7 6.8l25 29.7H332c26 0 47.1 21.1 47.1 47.1v167.5c16.5-2.1 28.9-16.1 28.9-32.7V112.2c0-18.1-14.7-32.8-32.8-32.9z"/></symbol></svg>