<svg height="512" width="512" xmlns="http://www.w3.org/2000/svg"><path d="M494.604 107.636c-17.746 7.809-36.66 12.984-56.371 15.492 20.283-12.14 35.76-31.224 43.035-54.22-18.91 11.306-39.783 19.293-62.033 23.747-17.959-19.174-43.547-31.045-71.461-31.045-54.166 0-97.768 44.085-97.768 98.126 0 7.776.656 15.248 2.268 22.372-81.336-3.982-153.304-43.065-201.651-102.611-8.443 14.68-13.393 31.491-13.393 49.583 0 33.973 17.447 64.09 43.458 81.521-15.718-.294-31.14-4.868-44.203-12.073v1.074c0 47.667 33.914 87.262 78.379 96.381-7.964 2.188-16.64 3.232-25.649 3.232-6.258 0-12.586-.361-18.521-1.674 12.68 38.85 48.647 67.41 91.416 68.334-33.286 26.108-75.549 41.838-121.299 41.838-8.021 0-15.717-.353-23.414-1.342 43.336 28.021 94.697 44.02 150.085 44.02 180.02 0 278.448-149.53 278.448-279.14 0-4.338-.156-8.527-.361-12.681 19.419-13.818 35.732-31.072 49.035-50.934zm0 0" fill="#03acf8" id="_x32_4-twitter_x2C__tweet"/></svg>