<svg version="1.1" id="Слой_1" xmlns="http://www.w3.org/2000/svg" x="0" y="0" viewBox="0 0 512 512" xml:space="preserve"><path d="M504.1 50.9c-6.3-7.6-15.6-11.9-26.4-11.9-5.8 0-12 1.2-18.4 3.7L25.9 208.1C2.9 216.9-.2 230 0 237.1s4 20 27.5 27.5c.1 0 .3.1.4.1l89.9 25.7 48.6 139c6.6 19 21.5 30.7 38.8 30.7 10.9 0 21.7-4.6 31.1-13.2l55.6-51.2 80.7 64.9.8.6.2.2c9 7 18.8 10.6 28.3 10.6 18.7 0 33.5-13.8 37.9-35.2l71-350.6c2.9-13.9.5-26.5-6.7-35.3zM147.9 285.6L321.3 197l-108 114.8c-1.8 1.9-3 4.2-3.6 6.7l-20.8 84.4-41-117.3zM216 424.9c-.7.7-1.4 1.3-2.2 1.8l19.3-78.3 35.1 28.3-52.2 48.2zM481.4 80.4l-71 350.6c-.7 3.4-2.9 11.2-8.5 11.2-2.8 0-6.3-1.5-9.8-4.3l-91.4-73.6-54.4-43.8 156.2-165.9c5-5.3 5.5-13.4 1.1-19.3-4.4-5.8-12.3-7.7-18.8-4.4L127.9 262.2l-91.1-26.1L470 70.7c3.7-1.4 6.2-1.7 7.7-1.7.9 0 2.6.1 3.2.9.8.9 1.8 4.2.5 10.5z" fill="#fff"/></svg>