<svg id="Capa_1" height="512" width="512" xmlns="http://www.w3.org/2000/svg"><path d="M188.993 266.969l13.567-19.084-29.376-9.212-47.489-66.799-47.489 66.799L0 263.195l48.856 65.807-.845 81.956 77.684-26.129 20.645 6.944-67.106-90.389zM512 263.195l-78.206-24.522-47.488-66.799-47.489 66.799-29.963 9.395 13.437 18.901 109.758 34.415-67.344 90.71 21.601-7.265 77.684 26.13-.846-81.957zM240.642 46.374h30v81.248h-30z"/><path d="M164.853 102.605h30v49.044h-30z" transform="rotate(-45 179.843 127.17)"/><path d="M306.908 112.127h49.043v30h-49.043z" transform="rotate(-45 331.432 127.196)"/><path d="M381.336 317.862L303.13 293.34l-47.488-66.8-47.489 66.8-78.206 24.522 48.856 65.807-.846 81.955 77.685-26.129 77.684 26.131-.846-81.957z"/></svg>