<svg version="1.1" id="Capa_1" xmlns="http://www.w3.org/2000/svg" x="0" y="0" viewBox="0 0 442.001 442.001" xml:space="preserve"><path d="M426.672 228.675l-138.979 87.514-20.036-12.615c-4.674-2.942-10.848-1.539-13.79 3.134-2.943 4.674-1.54 10.848 3.134 13.79l25.364 15.971a9.992 9.992 0 0010.656 0L437.328 245.6c4.674-2.942 6.077-9.117 3.134-13.79-2.941-4.675-9.116-6.079-13.79-3.135z"/><path d="M426.672 268.675l-138.979 87.514-20.036-12.615c-4.674-2.941-10.848-1.539-13.79 3.134-2.943 4.674-1.54 10.848 3.134 13.79l25.364 15.971a9.992 9.992 0 0010.656 0L437.328 285.6c4.674-2.942 6.077-9.117 3.134-13.79-2.941-4.675-9.116-6.078-13.79-3.135zM176.544 119.384L233.15 83.74l180.083 113.397-125.54 79.052-20.036-12.615c-4.674-2.942-10.848-1.54-13.79 3.134-2.943 4.674-1.54 10.848 3.134 13.79l25.364 15.971a9.992 9.992 0 0010.656 0L437.328 205.6a10 10 0 000-16.924L238.479 63.46a9.996 9.996 0 00-10.656 0l-61.935 39c-4.674 2.942-6.077 9.117-3.134 13.79 2.942 4.674 9.116 6.078 13.79 3.134z"/><path d="M237.657 176.395l-222.329-140A10 10 0 000 44.857v212.287a10 10 0 004.672 8.462l222.329 140a9.992 9.992 0 0010.161.293 10 10 0 005.167-8.755V184.857a10 10 0 00-4.672-8.462zM222.329 379.03L20 251.623V62.971l202.329 127.406V379.03z"/><path d="M82.75 233.628c4.209 2.65 8.506 3.995 12.771 3.995h.001c9.939 0 20.637-8.158 20.64-26.069.002-17.113-9.991-36.813-22.751-44.849-4.21-2.65-8.507-3.994-12.771-3.994-9.94 0-20.639 8.158-20.639 26.071-.001 17.115 9.992 36.814 22.749 44.846zm-1.655-50.814c.37.118.934.359 1.658.816 6.331 3.986 13.41 16.774 13.408 27.922 0 3.302-.654 5.181-1.096 5.969-.37-.119-.933-.36-1.658-.816C87.078 212.719 80 199.932 80 188.783c0-3.303.654-5.181 1.095-5.969zm49.741 36.094L167 241.68a9.948 9.948 0 005.318 1.539 9.993 9.993 0 008.472-4.673c2.943-4.673 1.54-10.848-3.134-13.79l-36.164-22.772c-4.672-2.941-10.848-1.539-13.79 3.134-2.943 4.672-1.54 10.847 3.134 13.79zm-.001 39.999l36.164 22.773a9.994 9.994 0 0013.791-3.133c2.943-4.674 1.54-10.848-3.133-13.791l-36.164-22.773c-4.674-2.942-10.849-1.539-13.791 3.133-2.943 4.673-1.54 10.847 3.133 13.791z"/></svg>